<svg width="418" height="44" viewBox="0 0 418 44" fill="none" xmlns="http://www.w3.org/2000/svg">
<path fill-rule="evenodd" clip-rule="evenodd" d="M69.309 19.0479V28.8213C66.7243 31.6774 62.5353 33.2392 57.5445 33.2392C49.3452 33.2392 43.7744 27.7055 43.7744 18.1553C43.7744 8.87279 49.3003 3.25 57.5445 3.25C62.4017 3.25 66.2342 5.03489 68.6403 8.0251C68.3285 9.18505 67.2143 9.89909 66.1451 10.1672C64.4518 7.71243 61.5998 6.28435 57.5445 6.28435C51.2167 6.28435 47.3397 10.7026 47.3397 18.1553C47.3397 25.8311 51.2613 30.1599 57.5445 30.1599C60.6638 30.1599 63.4267 29.4462 65.7438 27.9286V19.6729C66.6797 18.7798 68.1057 18.6461 69.309 19.0479Z" fill="white"/>
<path fill-rule="evenodd" clip-rule="evenodd" d="M84.864 13.426C81.2101 13.426 79.3827 13.6933 77.9121 14.4969V32.7937H74.481V12.3548C76.9762 10.9712 80.1405 10.3018 82.8588 10.3018C84.1957 10.3018 84.9531 10.5249 85.4881 10.7035C85.4881 11.7298 85.354 12.7561 84.864 13.426Z" fill="white"/>
<path fill-rule="evenodd" clip-rule="evenodd" d="M107.327 10.4355V30.8749C105.633 32.0798 100.732 32.9275 97.9687 32.9275C92.7547 32.9275 89.4126 31.0086 89.4126 25.6535V11.105C90.4377 10.6137 91.5073 10.4355 92.8442 10.4355V25.1622C92.8442 28.4205 94.7602 29.8928 98.7706 29.8928C100.687 29.8928 102.469 29.5805 103.895 29.1791V11.0601C104.831 10.5692 106.168 10.4355 107.327 10.4355Z" fill="white"/>
<path fill-rule="evenodd" clip-rule="evenodd" d="M129.341 21.453C129.341 16.812 126.757 13.1973 120.607 13.1973C119.359 13.1973 118.067 13.3755 116.73 13.6877V29.352C118.067 29.8433 119.716 30.2447 121.498 30.2447C126.356 30.2447 129.341 27.6562 129.341 21.453ZM132.817 21.9912C132.817 28.3726 129.697 33.2368 123.012 33.2368C120.918 33.2368 118.512 32.5673 116.729 31.4964V40.5112C116.016 41.1807 114.323 41.6716 113.298 41.6716V11.5038C114.724 10.8788 117.62 10.2539 120.383 10.2539C128.093 10.2539 132.817 14.2704 132.817 21.9912Z" fill="white"/>
<path fill-rule="evenodd" clip-rule="evenodd" d="M154.12 21.635C154.12 16.3245 151.447 13.2456 146.856 13.2456C142.356 13.2456 139.638 16.3245 139.638 21.635C139.638 27.2582 142.311 30.1589 146.856 30.1589C151.447 30.1589 154.12 27.2582 154.12 21.635ZM136.12 21.6367C136.12 14.6754 140.442 10.168 146.859 10.168C153.41 10.168 157.599 14.7645 157.599 21.6367C157.599 28.822 153.365 33.2399 146.859 33.2399C140.309 33.2399 136.12 28.688 136.12 21.6367Z" fill="white"/>
<path fill-rule="evenodd" clip-rule="evenodd" d="M26.4289 25.1511C22.6203 26.0698 18.8929 27.2157 15.2023 28.5274C14.6751 28.7275 14.1026 28.468 13.9631 27.9615C13.6657 26.8832 13.4021 26.0533 13.1089 24.9787C12.9855 24.5274 13.2495 24.0374 13.7177 23.8666C17.4092 22.6068 21.1357 21.6172 24.9484 20.7955C25.3688 20.7097 25.811 21.0187 25.9624 21.4923C26.2705 22.4563 26.5386 23.2309 26.8385 24.1987C26.9742 24.6376 26.7944 25.0629 26.4289 25.1511ZM7.31909 23.095C7.09386 21.9351 6.86616 21.0639 6.64506 19.9064C6.55885 19.4535 6.80552 18.9399 7.21678 18.7469C12.8548 16.2698 18.8006 14.7708 24.9068 13.9982C25.3086 13.9458 25.7149 14.2424 25.8651 14.6858C26.1868 15.6403 26.462 16.4105 26.7746 17.3695C26.9256 17.8319 26.7247 18.2812 26.33 18.3451C20.1214 19.3339 14.0692 20.9921 8.3425 23.5962C7.88215 23.8194 7.41561 23.5913 7.31909 23.095ZM10.0648 9.91232C13.8413 8.82579 17.6095 8.12042 21.5097 7.64316C21.9354 7.59737 22.3516 7.87209 22.5054 8.29119C22.8672 9.27831 23.1625 10.0649 23.5169 11.0574C23.6852 11.5285 23.4344 11.9983 22.9773 12.059C18.9864 12.646 15.1184 13.4528 11.2599 14.6317C10.7892 14.7868 10.326 14.5505 10.2072 14.0926C9.92624 13.0094 9.6709 12.1769 9.39494 11.0974C9.27119 10.6123 9.57314 10.0654 10.0648 9.91232ZM17.5189 0.84375C8.00048 0.84375 0.284668 8.55956 0.284668 18.078C0.284668 27.5964 8.00048 35.3123 17.5189 35.3123C27.0369 35.3123 34.7532 27.5964 34.7532 18.078C34.7532 8.55956 27.0369 0.84375 17.5189 0.84375Z" fill="white"/>
<path fill-rule="evenodd" clip-rule="evenodd" d="M182.062 23.8373C182.062 21.4803 180.55 20.5018 177.57 20.5018H174.012V27.1732H177.525C180.417 27.1732 182.062 26.0165 182.062 23.8373ZM176.859 8.80322C175.925 8.80322 174.947 8.89232 174.013 9.02597V14.9408H177.037C179.706 14.9408 180.951 13.8291 180.951 11.9168C180.951 10.0931 179.661 8.80322 176.859 8.80322ZM189.356 24.1487C189.356 29.352 184.108 32.8211 178.148 32.8211H167.208V4.09093C170.854 3.55716 173.612 3.20117 176.858 3.20117C182.862 3.20117 187.666 6.00328 187.666 10.8955C187.666 13.6972 186.198 15.565 183.574 16.588C187.621 17.7443 189.356 20.1904 189.356 24.1487Z" fill="white"/>
<path fill-rule="evenodd" clip-rule="evenodd" d="M205.029 27.1303V23.3052H203.739C200.715 23.3052 197.957 23.9726 197.957 26.0632C197.957 27.6641 199.025 28.242 201.204 28.242C202.938 28.242 204.362 27.7082 205.029 27.1303ZM211.565 18.8114V30.5083C209.163 32.332 205.293 33.31 200.046 33.31C195.376 33.31 191.506 31.3976 191.506 27.1728C191.506 20.8129 197.688 19.2561 205.026 19.0338C204.893 16.2762 203.781 15.5647 201.335 15.5647C200.046 15.5647 196.621 16.143 196.176 16.143C195.109 16.143 194.264 15.476 193.552 13.5191L193.019 11.9182C195.776 10.8952 198.489 10.1836 201.424 10.1836C207.828 10.1836 211.565 12.5852 211.565 18.8114Z" fill="white"/>
<path fill-rule="evenodd" clip-rule="evenodd" d="M236.056 16.9898V32.8223H229.384V19.3468C229.384 16.9898 227.828 15.7886 225.114 15.7886C224.092 15.7886 223.114 15.9222 222.269 16.1446V32.8223H215.553L215.597 13.0314C218.399 11.1636 222.936 10.1406 226.627 10.1406C231.742 10.1406 236.056 12.6759 236.056 16.9898Z" fill="white"/>
<path fill-rule="evenodd" clip-rule="evenodd" d="M238.944 21.9723C238.944 14.1892 244.37 10.0977 251.397 10.0977C253.354 10.0977 255.132 10.3645 257.267 10.8538C257.001 13.0776 256.066 15.034 255.044 16.1461C254.288 15.9238 253.042 15.746 252.331 15.746C247.839 15.746 246.015 18.0585 246.015 21.5722C246.015 25.13 247.706 27.3092 251.931 27.3092C253.087 27.3092 254.421 27.0869 256.066 26.5086L257.267 31.8455C254.821 32.8239 252.286 33.269 250.285 33.269C243.436 33.269 238.944 29.1774 238.944 21.9723Z" fill="white"/>
<path fill-rule="evenodd" clip-rule="evenodd" d="M275.057 21.6586C275.057 18.0121 273.279 15.877 270.166 15.877C267.141 15.877 265.273 18.0121 265.273 21.6586C265.273 25.4833 267.097 27.4851 270.166 27.4851C273.279 27.4851 275.057 25.4833 275.057 21.6586ZM258.559 21.6609C258.559 14.5452 263.363 10.0977 270.167 10.0977C277.238 10.0977 281.775 14.723 281.775 21.6609C281.775 28.8214 277.194 33.269 270.167 33.269C263.095 33.269 258.559 28.6882 258.559 21.6609Z" fill="white"/>
<path fill-rule="evenodd" clip-rule="evenodd" d="M285.554 4.27238C287.111 3.11615 290.491 2.1377 292.27 2.1377V32.8248H285.554V4.27238Z" fill="white"/>
<path fill-rule="evenodd" clip-rule="evenodd" d="M312.553 21.6586C312.553 18.0121 310.774 15.877 307.661 15.877C304.636 15.877 302.769 18.0121 302.769 21.6586C302.769 25.4833 304.592 27.4851 307.661 27.4851C310.774 27.4851 312.553 25.4833 312.553 21.6586ZM296.055 21.6609C296.055 14.5452 300.857 10.0977 307.662 10.0977C314.733 10.0977 319.27 14.723 319.27 21.6609C319.27 28.8214 314.689 33.269 307.662 33.269C300.591 33.269 296.055 28.6882 296.055 21.6609Z" fill="white"/>
<path fill-rule="evenodd" clip-rule="evenodd" d="M356.672 16.9898V32.8223H350.045V19.3468C350.045 16.9898 348.533 15.7886 345.864 15.7886C344.619 15.7886 343.418 16.0555 342.439 16.456C342.795 17.4345 342.974 18.502 342.974 19.6578V32.8223H336.346V19.3468C336.346 16.9898 334.834 15.7886 332.166 15.7886C331.143 15.7886 330.165 15.9222 329.32 16.1446V32.8223H322.604L322.648 13.0314C325.317 11.1636 329.498 10.1406 333.011 10.1406C335.813 10.1406 338.215 11.0745 339.949 12.5868C342.217 11.1191 345.375 10.1406 348.043 10.1406C352.891 10.1406 356.672 12.72 356.672 16.9898Z" fill="white"/>
<path fill-rule="evenodd" clip-rule="evenodd" d="M376.997 21.3507C376.997 17.2591 374.862 15.791 371.437 15.791C370.058 15.791 368.947 16.0579 367.968 16.503V27.6661C369.169 27.8439 370.325 27.9325 371.393 27.9325C375.307 27.9325 376.997 24.9085 376.997 21.3507ZM383.626 20.5055C383.626 28.5996 378.822 33.2699 370.995 33.2699C367.17 33.2699 363.478 32.5583 361.254 31.5349V4.27238C362.811 3.11615 366.236 2.1377 367.97 2.1377V12.6783C369.883 11.0324 372.196 10.1431 374.285 10.1431C380.913 10.1431 383.626 14.7239 383.626 20.5055Z" fill="white"/>
<path fill-rule="evenodd" clip-rule="evenodd" d="M387.406 10.7631C388.34 10.363 389.496 10.1406 390.786 10.1406C392.077 10.1406 393.187 10.363 394.119 10.7631V32.8223H387.406V10.7631ZM387.315 3.7361C387.315 1.8683 388.871 0.311523 390.739 0.311523C392.653 0.311523 394.208 1.82375 394.208 3.7361C394.208 5.55976 392.653 7.16067 390.739 7.16067C388.871 7.16067 387.315 5.64845 387.315 3.7361Z" fill="white"/>
<path fill-rule="evenodd" clip-rule="evenodd" d="M410.977 27.1303V23.3052H409.685C406.662 23.3052 403.906 23.9726 403.906 26.0632C403.906 27.6641 404.971 28.242 407.153 28.242C408.885 28.242 410.308 27.7082 410.977 27.1303ZM417.515 18.8114V30.5083C415.115 32.332 411.245 33.31 405.994 33.31C401.325 33.31 397.456 31.3976 397.456 27.1728C397.456 20.8129 403.639 19.2561 410.977 19.0338C410.841 16.2762 409.732 15.5647 407.285 15.5647C405.994 15.5647 402.571 16.143 402.125 16.143C401.061 16.143 400.215 15.476 399.502 13.5191L398.969 11.9182C401.725 10.8952 404.439 10.1836 407.376 10.1836C413.778 10.1836 417.515 12.5852 417.515 18.8114Z" fill="white"/>
</svg>
