<?xml version="1.0" standalone="no"?>
<!DOCTYPE svg PUBLIC "-//W3C//DTD SVG 20010904//EN"
 "http://www.w3.org/TR/2001/REC-SVG-20010904/DTD/svg10.dtd">
<svg version="1.0" xmlns="http://www.w3.org/2000/svg"
 width="500.000000pt" height="188.000000pt" viewBox="0 0 500.000000 188.000000"
 preserveAspectRatio="xMidYMid meet">

<g transform="translate(0.000000,188.000000) scale(0.100000,-0.100000)"
fill="#000000" stroke="none">
<path d="M1708 1856 c-11 -8 -15 -21 -12 -37 5 -18 3 -21 -5 -9 -8 12 -12 10
-19 -10 -5 -14 -7 -29 -5 -33 3 -5 -3 -17 -12 -27 -10 -11 -15 -26 -11 -35 4
-11 2 -14 -6 -9 -8 5 -9 2 -5 -9 3 -10 2 -17 -3 -17 -6 0 -10 -6 -10 -14 0 -8
-7 -21 -15 -29 -7 -8 -17 -28 -21 -43 -7 -26 -6 -28 9 -15 10 7 17 19 17 26 0
6 9 20 20 30 11 10 20 22 20 27 0 5 7 16 16 25 9 9 14 28 12 47 -2 17 2 31 7
31 6 0 16 4 24 9 9 6 8 -1 -4 -20 -14 -24 -11 -22 18 9 44 48 55 86 31 104
-22 16 -25 16 -46 -1z m42 -51 c-6 -15 -14 -24 -18 -19 -4 5 -11 13 -17 17 -6
5 -3 7 7 3 11 -3 19 2 23 15 4 11 9 19 11 16 3 -2 0 -17 -6 -32z"/>
<path d="M4287 1864 c-3 -3 -1 -14 6 -24 8 -14 8 -25 -2 -44 -8 -13 -11 -32
-7 -41 10 -28 -28 -72 -62 -70 -15 1 -34 5 -41 9 -6 4 -47 16 -89 26 -68 17
-80 17 -106 4 -40 -20 -46 -18 -47 14 0 22 -2 24 -8 8 -8 -21 9 -86 22 -86 5
0 14 14 20 30 6 17 15 30 19 30 11 0 11 0 -16 -73 -14 -35 -22 -67 -19 -71 3
-3 16 -3 28 0 17 4 24 0 28 -16 5 -18 10 -21 35 -15 22 4 34 2 44 -11 42 -52
68 -73 82 -68 9 3 16 12 16 20 0 14 2 15 55 19 44 3 52 -2 84 -55 32 -52 59
-67 91 -50 11 6 20 7 20 3 0 -4 8 8 18 27 14 30 23 35 56 38 28 2 44 -2 60
-17 26 -25 73 -43 81 -32 9 15 147 53 192 53 38 0 43 2 38 18 -4 13 0 20 14
25 61 19 92 113 50 151 -41 37 -163 13 -241 -48 -20 -15 -42 -28 -48 -28 -6 0
-39 13 -73 29 -34 16 -86 38 -115 48 -45 15 -53 21 -49 39 2 15 -1 21 -12 20
-16 -1 -17 6 -6 35 5 13 1 15 -20 12 -21 -4 -23 -8 -14 -20 9 -11 8 -17 -7
-28 -30 -23 -38 -13 -42 50 -3 55 -22 102 -35 89z m23 -264 c12 -8 11 -10 -7
-10 -12 0 -25 5 -28 10 -8 13 15 13 35 0z m-8 -25 c18 6 20 5 11 -5 -16 -18
-63 -4 -63 18 1 16 2 16 15 -1 10 -14 20 -17 37 -12z m-132 -65 c8 -5 12 -11
9 -14 -7 -8 -49 5 -49 15 0 12 21 11 40 -1z m210 -80 c0 -5 -4 -10 -9 -10 -6
0 -13 5 -16 10 -3 6 1 10 9 10 9 0 16 -4 16 -10z m30 -10 c0 -5 -4 -10 -10
-10 -5 0 -10 5 -10 10 0 6 5 10 10 10 6 0 10 -4 10 -10z"/>
<path d="M2400 1836 c0 -17 7 -25 25 -28 30 -6 31 -1 6 30 -24 28 -31 28 -31
-2z"/>
<path d="M2933 1843 c-13 -8 -23 -21 -23 -29 0 -10 6 -11 23 -5 12 5 22 14 22
20 0 6 7 16 15 21 13 9 13 10 0 9 -8 0 -25 -7 -37 -16z"/>
<path d="M2581 1821 c-8 -5 -21 -33 -28 -61 -7 -28 -24 -75 -37 -103 -20 -41
-22 -53 -12 -61 19 -16 27 -81 12 -101 -11 -16 -14 -15 -29 9 -10 14 -24 26
-32 26 -8 0 -29 12 -47 28 -65 54 -64 54 -82 37 -9 -9 -16 -32 -16 -51 0 -34
0 -34 46 -34 38 0 45 -3 40 -16 -3 -9 -6 -19 -6 -24 0 -20 -53 -70 -75 -70
-23 0 -23 -1 -11 -31 7 -17 20 -39 29 -49 23 -27 39 -60 29 -60 -4 0 -16 -16
-25 -35 -14 -29 -22 -35 -47 -35 -16 0 -30 5 -30 10 0 6 7 10 16 10 8 0 12 5
8 11 -4 8 -9 8 -17 0 -6 -6 -20 -11 -31 -11 -16 0 -17 -3 -8 -12 15 -15 15
-60 1 -92 -20 -44 23 -115 49 -83 18 21 17 54 -1 74 -17 19 -16 20 29 21 40 0
45 -2 41 -19 -3 -10 -1 -19 4 -19 5 0 9 -6 9 -13 0 -23 37 -49 58 -43 22 7 36
45 26 71 -11 27 94 9 128 -22 31 -29 62 -27 66 5 3 17 10 22 35 22 21 0 38 7
47 20 16 23 40 27 40 6 0 -22 40 -66 61 -66 12 0 21 9 25 25 3 14 14 30 23 35
15 9 15 9 -1 10 -18 0 -64 57 -54 67 3 3 14 -1 24 -10 10 -10 26 -17 36 -17
14 0 15 3 5 23 -6 12 -20 32 -31 44 -16 17 -18 25 -8 43 6 11 14 53 17 93 3
48 11 76 21 84 13 11 6 17 -51 43 l-66 30 1 49 c0 31 5 51 13 55 9 3 2 17 -23
43 -21 22 -48 62 -62 90 -29 59 -70 79 -109 54z m-3 -432 c20 -34 22 -45 13
-72 -11 -31 -14 -33 -68 -35 -52 -2 -56 -1 -38 12 11 8 24 12 29 9 4 -3 12 1
17 8 7 11 11 10 23 -6 15 -19 16 -19 13 5 -2 14 -13 29 -25 35 -22 10 -39 56
-27 75 13 21 41 8 63 -31z m202 -10 c12 -35 12 -42 -1 -50 -17 -10 -59 -12
-59 -2 0 16 33 93 40 93 4 0 13 -18 20 -41z m-92 -43 c-4 -27 -25 -31 -38 -7
-8 16 -8 27 1 43 11 21 12 21 26 2 7 -10 12 -28 11 -38z m28 -93 c13 -51 -38
-82 -77 -47 -23 21 -24 37 -2 55 11 10 14 10 9 2 -4 -7 -2 -13 3 -13 6 0 11 5
11 11 0 5 5 7 11 4 7 -5 2 -16 -12 -31 l-22 -24 31 0 c29 0 31 2 28 35 -3 41
11 47 20 8z m-153 -40 c-7 -2 -19 -2 -25 0 -7 3 -2 5 12 5 14 0 19 -2 13 -5z
m2 -23 c-3 -5 -14 -10 -23 -9 -14 0 -13 2 3 9 27 11 27 11 20 0z m-265 -32 c0
-11 -12 -10 -30 2 -12 7 -10 9 8 7 12 0 22 -5 22 -9z m518 0 c7 -7 12 -23 12
-36 0 -38 -34 -24 -38 16 -3 33 6 40 26 20z m-398 -47 c12 -23 4 -51 -15 -51
-14 0 -25 22 -25 51 0 25 26 25 40 0z m-140 -48 c0 -15 -26 -18 -35 -3 -3 6
-3 20 1 32 6 21 7 21 20 3 8 -10 14 -25 14 -32z m340 31 c0 -9 -7 -14 -17 -12
-25 5 -28 28 -4 28 12 0 21 -6 21 -16z"/>
<path d="M2755 1340 c-3 -5 -2 -10 4 -10 5 0 13 5 16 10 3 6 2 10 -4 10 -5 0
-13 -4 -16 -10z"/>
<path d="M2800 1130 c0 -5 5 -10 11 -10 5 0 7 5 4 10 -3 6 -8 10 -11 10 -2 0
-4 -4 -4 -10z"/>
<path d="M2390 1090 c0 -5 5 -10 10 -10 6 0 10 5 10 10 0 6 -4 10 -10 10 -5 0
-10 -4 -10 -10z"/>
<path d="M3959 1813 c-1 -5 -1 -11 0 -15 0 -5 -4 -8 -10 -8 -5 0 -7 -5 -3 -12
5 -7 11 -5 21 7 7 11 13 22 13 27 0 10 -20 11 -21 1z"/>
<path d="M4425 1790 c4 -6 22 -17 42 -25 20 -8 42 -23 49 -33 10 -12 13 -13
14 -3 0 14 16 13 95 -8 22 -5 41 -8 43 -6 9 9 -70 73 -98 79 -52 10 -152 7
-145 -4z"/>
<path d="M4100 1785 c0 -2 11 -16 24 -30 16 -18 30 -24 38 -19 19 12 40 11 66
-3 12 -8 22 -10 22 -5 0 15 -24 32 -46 32 -12 0 -40 7 -63 15 -22 8 -41 12
-41 10z"/>
<path d="M4430 1750 c0 -5 5 -10 11 -10 5 0 7 5 4 10 -3 6 -8 10 -11 10 -2 0
-4 -4 -4 -10z"/>
<path d="M4340 1740 c0 -5 5 -10 11 -10 5 0 7 5 4 10 -3 6 -8 10 -11 10 -2 0
-4 -4 -4 -10z"/>
<path d="M2841 1679 c-7 -16 -11 -33 -8 -35 8 -8 47 34 47 51 0 26 -25 16 -39
-16z"/>
<path d="M3303 1698 c-7 -8 -10 -18 -7 -21 4 -3 -16 -9 -44 -13 -49 -6 -49 -7
-31 -25 11 -11 33 -19 53 -19 19 0 38 -4 41 -10 7 -12 45 -14 45 -2 0 5 -9 18
-19 29 -11 11 -21 33 -23 48 -3 24 -5 26 -15 13z m-9 -53 c-7 -17 -20 -20 -28
-6 -4 5 0 12 6 14 23 9 28 7 22 -8z"/>
<path d="M3884 1676 c-3 -8 -4 -21 -1 -28 3 -8 6 -6 6 5 1 10 6 15 11 12 6 -3
10 -2 10 4 0 17 -20 23 -26 7z"/>
<path d="M3900 1631 c-13 -25 -13 -84 0 -76 6 3 7 18 4 33 -4 21 -3 24 5 12 8
-12 11 -8 11 18 0 37 -5 40 -20 13z"/>
<path d="M883 1595 c-104 -28 -178 -76 -283 -185 -36 -36 -78 -72 -95 -78 -48
-19 -115 -31 -115 -21 0 5 7 9 15 9 8 0 15 5 15 10 0 6 20 19 45 30 25 11 45
21 45 24 0 8 -103 -25 -128 -40 -29 -19 -62 -72 -62 -101 0 -12 -11 -34 -25
-49 -14 -15 -25 -28 -25 -30 0 -2 14 -1 30 3 19 3 30 1 30 -5 0 -7 13 -18 29
-27 31 -15 84 -12 109 8 23 19 447 14 436 -5 -3 -4 7 -15 21 -24 19 -13 35
-15 72 -8 27 4 54 6 61 5 7 -1 26 7 42 19 22 16 41 20 82 18 44 -3 53 0 50 13
-2 13 5 15 43 9 25 -4 48 -3 51 2 3 5 12 7 20 4 7 -3 18 3 24 14 13 23 13 33
1 25 -17 -10 -21 12 -5 26 12 10 17 10 23 0 10 -16 21 20 21 72 0 34 -2 38
-20 32 -24 -8 -41 22 -20 35 11 7 11 13 2 32 -7 13 -11 16 -8 8 3 -12 -3 -15
-30 -12 -21 3 -34 0 -34 -7 0 -6 -5 -11 -10 -11 -15 0 22 49 38 50 16 0 15 12
-4 36 -10 12 -14 14 -11 4 6 -21 -60 -24 -80 -4 -23 23 -110 -10 -138 -52 -21
-32 -43 -30 -129 11 -66 32 -169 62 -190 56 -5 -1 -4 4 2 12 7 8 9 16 6 19 -2
3 2 8 11 12 11 4 14 2 9 -6 -5 -8 -2 -9 10 -5 17 7 126 37 201 56 38 10 37 10
-17 6 -32 -3 -83 -15 -113 -26 -31 -12 -59 -18 -62 -15 -9 9 65 37 137 51 63
13 63 13 20 13 -25 1 -69 -6 -97 -13z m-23 -146 c25 -5 51 -17 58 -26 6 -9 12
-13 12 -9 0 5 7 3 15 -4 16 -13 11 -30 -8 -30 -8 0 -8 3 1 9 10 6 8 10 -8 14
-15 4 -20 2 -17 -7 4 -10 -2 -12 -28 -6 -19 4 -36 5 -39 2 -3 -3 -21 -6 -40
-7 -26 -2 -33 1 -29 11 6 17 23 18 23 2 0 -9 3 -10 8 -2 9 13 85 27 77 14 -3
-6 1 -7 9 -4 30 11 5 24 -37 19 -29 -3 -34 -2 -17 3 24 8 24 8 3 14 -12 3 -26
1 -32 -5 -8 -8 -11 -7 -11 2 0 7 -4 10 -9 6 -5 -3 -12 -1 -16 5 -8 13 27 13
85 -1z m396 -22 c8 -17 7 -26 -2 -35 -8 -7 -12 -42 -11 -102 0 -49 -3 -93 -7
-97 -4 -4 -6 52 -5 125 0 73 4 132 7 132 4 0 12 -11 18 -23z m-586 9 c0 -2
-12 -11 -27 -20 l-28 -17 24 20 c23 21 31 25 31 17z m-57 -66 c3 -11 1 -18 -4
-14 -5 3 -9 12 -9 20 0 20 7 17 13 -6z m77 9 c0 -5 -6 -9 -14 -9 -8 0 -18 -5
-22 -11 -4 -7 1 -9 15 -5 36 10 67 16 54 10 -7 -3 -13 -11 -13 -18 0 -13 -38
-15 -58 -3 -7 5 -10 13 -7 18 4 5 0 9 -7 9 -10 0 -10 2 -1 8 18 11 53 12 53 1z
m180 -18 c0 -3 -10 -15 -22 -28 -20 -22 -76 -34 -63 -14 3 5 1 12 -5 16 -19
12 14 32 52 31 21 0 38 -3 38 -5z m35 -21 c7 -11 -43 -46 -52 -36 -7 7 25 46
38 46 4 0 10 -4 14 -10z m435 -21 c0 -11 -28 -24 -36 -17 -2 3 -2 12 2 21 6
16 34 12 34 -4z m-50 1 c0 -5 -4 -10 -9 -10 -6 0 -13 5 -16 10 -3 6 1 10 9 10
9 0 16 -4 16 -10z m97 -47 c-3 -10 -5 -2 -5 17 0 19 2 27 5 18 2 -10 2 -26 0
-35z m-967 7 c0 -5 -7 -10 -15 -10 -8 0 -15 5 -15 10 0 6 7 10 15 10 8 0 15
-4 15 -10z m2 -25 c18 6 20 4 12 -5 -15 -15 -56 -9 -62 10 -4 13 -3 13 11 2
10 -8 25 -11 39 -7z m868 -15 c0 -5 -2 -10 -4 -10 -3 0 -8 5 -11 10 -3 6 -1
10 4 10 6 0 11 -4 11 -10z m34 4 c23 -9 20 -34 -4 -34 -13 0 -20 7 -20 20 0
22 1 23 24 14z m-919 -73 c3 -5 2 -12 -3 -15 -5 -3 -9 1 -9 9 0 17 3 19 12 6z
m570 -13 c-1 -12 -7 -24 -14 -26 -6 -2 -10 2 -9 10 2 8 -4 12 -17 10 -26 -5
-8 14 20 21 11 3 20 5 21 6 0 0 0 -9 -1 -21z"/>
<path d="M1060 1600 c20 -13 40 -13 40 0 0 6 -12 10 -27 10 -22 0 -25 -2 -13
-10z"/>
<path d="M1670 1585 c-5 -14 -13 -37 -16 -50 -3 -13 -15 -27 -25 -30 -10 -4
-19 -11 -19 -17 0 -7 5 -7 14 1 14 12 46 5 46 -10 0 -5 -10 -9 -22 -9 -19 0
-23 -6 -24 -32 0 -18 -4 -47 -8 -65 -8 -30 -7 -32 28 -38 20 -4 34 -10 32 -14
-2 -3 15 -6 38 -6 32 0 52 -8 81 -30 29 -22 48 -28 75 -26 41 3 72 35 64 67
-3 11 -7 29 -8 40 -2 10 -9 18 -16 16 -8 -2 -10 6 -6 25 7 32 -21 85 -53 103
-17 8 -25 6 -42 -11 -19 -19 -20 -21 -3 -33 16 -12 14 -14 -14 -18 -27 -4 -33
-1 -41 24 -10 29 3 68 22 68 5 0 6 7 3 16 -5 12 -2 15 10 10 8 -3 23 -6 32 -7
10 -1 7 -4 -8 -9 -47 -15 6 -10 59 6 29 8 55 13 58 10 3 -2 16 -1 28 4 14 5
25 5 27 0 2 -6 9 -6 18 0 26 16 5 20 -119 22 -68 2 -125 6 -127 10 -3 5 -21 8
-40 8 -28 0 -36 -5 -44 -25z m98 -255 c4 -12 2 -13 -9 -4 -8 7 -23 14 -34 17
-13 4 -9 5 9 4 16 -1 32 -9 34 -17z"/>
<path d="M3380 1606 c0 -2 7 -7 16 -10 8 -3 12 -2 9 4 -6 10 -25 14 -25 6z"/>
<path d="M3685 1600 c-3 -5 1 -10 10 -10 9 0 13 5 10 10 -3 6 -8 10 -10 10 -2
0 -7 -4 -10 -10z"/>
<path d="M3430 1559 c0 -5 5 -7 10 -4 6 3 10 8 10 11 0 2 -4 4 -10 4 -5 0 -10
-5 -10 -11z"/>
<path d="M3278 1554 c-5 -4 -8 -16 -8 -28 0 -14 3 -17 11 -9 6 6 9 19 7 28 -1
9 -6 13 -10 9z"/>
<path d="M3370 1551 c0 -6 4 -13 10 -16 6 -3 7 1 4 9 -7 18 -14 21 -14 7z"/>
<path d="M3300 1541 c0 -10 26 -9 36 2 4 4 -2 7 -14 7 -12 0 -22 -4 -22 -9z"/>
<path d="M3539 1520 c-15 -17 -23 -30 -19 -30 7 0 32 26 44 48 11 19 3 14 -25
-18z"/>
<path d="M877 1519 c-32 -3 -61 -10 -65 -14 -9 -8 96 1 123 11 18 7 19 6 5
-11 -14 -17 -14 -18 10 -5 14 8 45 17 70 21 41 6 39 7 -20 6 -36 -1 -91 -4
-123 -8z"/>
<path d="M3420 1520 c20 -13 33 -13 25 0 -3 6 -14 10 -23 10 -15 0 -15 -2 -2
-10z"/>
<path d="M3460 1510 c0 -6 7 -10 15 -10 8 0 15 2 15 4 0 2 -7 6 -15 10 -8 3
-15 1 -15 -4z"/>
<path d="M3161 1477 c5 -18 9 -34 9 -36 0 -3 5 0 12 7 8 8 8 15 0 25 -7 8 -9
16 -6 19 2 3 -2 8 -10 11 -12 5 -13 0 -5 -26z"/>
<path d="M3130 1439 c0 -5 5 -7 10 -4 6 3 10 8 10 11 0 2 -4 4 -10 4 -5 0 -10
-5 -10 -11z"/>
<path d="M3400 1442 c0 -7 -8 -12 -17 -12 -15 0 -16 -2 -3 -10 10 -6 17 -4 23
6 5 9 6 18 3 21 -3 4 -6 1 -6 -5z"/>
<path d="M2961 1414 c0 -11 3 -14 6 -6 3 7 2 16 -1 19 -3 4 -6 -2 -5 -13z"/>
<path d="M3960 1421 c0 -5 6 -12 13 -14 9 -4 9 -6 0 -6 -8 -1 -10 -8 -6 -18 6
-15 4 -16 -9 -5 -12 10 -18 10 -23 1 -8 -12 11 -29 32 -29 14 0 45 59 37 71
-7 12 -44 12 -44 0z"/>
<path d="M3275 1410 c-3 -6 1 -7 9 -4 18 7 21 14 7 14 -6 0 -13 -4 -16 -10z"/>
<path d="M3420 1406 c0 -15 24 -28 34 -19 7 7 -13 33 -25 33 -5 0 -9 -6 -9
-14z"/>
<path d="M4670 1385 c12 -15 30 -12 30 6 0 5 -10 9 -21 9 -18 0 -19 -2 -9 -15z"/>
<path d="M2985 1380 c3 -5 8 -10 11 -10 2 0 4 5 4 10 0 6 -5 10 -11 10 -5 0
-7 -4 -4 -10z"/>
<path d="M3250 1386 c0 -2 7 -7 16 -10 8 -3 12 -2 9 4 -6 10 -25 14 -25 6z"/>
<path d="M3103 1355 c0 -8 4 -12 9 -9 4 3 12 -5 17 -18 6 -13 10 -17 10 -10 1
6 6 12 11 12 6 0 10 -8 8 -17 -2 -11 4 -18 17 -20 11 -1 14 0 8 3 -7 3 -13 10
-13 15 0 5 9 4 19 -3 11 -7 18 -15 15 -19 -6 -10 26 -20 38 -12 7 4 8 1 3 -7
-5 -9 -2 -10 11 -6 11 3 26 1 34 -5 12 -9 11 -10 -5 -4 -12 4 -16 3 -10 -3 17
-16 75 -31 93 -26 10 4 13 2 7 -3 -18 -15 -17 -72 2 -103 38 -65 134 -59 163
9 7 19 17 28 26 24 8 -3 12 -9 9 -13 -3 -4 2 -11 11 -14 8 -3 13 -2 10 2 -3 5
13 8 36 8 54 -1 59 18 8 38 -51 20 -54 20 -46 -1 5 -15 4 -15 -9 1 -8 11 -15
17 -15 13 0 -4 -17 10 -37 30 -21 21 -37 40 -36 43 2 9 -81 -1 -92 -11 -5 -5
-14 -9 -20 -9 -5 0 -3 4 5 10 12 7 11 10 -5 16 -11 3 -53 19 -93 35 -40 17
-77 27 -82 24 -6 -3 -10 -1 -10 4 0 6 6 11 13 11 6 0 1 6 -13 14 -27 14 -52
10 -29 -5 11 -7 11 -9 -2 -9 -9 0 -22 7 -29 15 -16 19 -37 19 -37 0z m152 -63
c-7 -8 -35 7 -35 18 0 6 7 6 20 -2 10 -7 17 -14 15 -16z m100 -32 c3 -6 -1 -7
-9 -4 -18 7 -21 14 -7 14 6 0 13 -4 16 -10z m149 -45 c15 -11 16 -15 5 -15 -8
0 -19 4 -24 9 -6 5 -19 11 -30 14 -16 4 -15 5 5 6 14 0 34 -6 44 -14z m-76
-23 c7 -5 10 -16 7 -24 -8 -20 13 -34 28 -19 6 6 20 11 32 11 15 0 12 4 -13
17 -18 8 -30 18 -28 21 3 3 11 0 18 -5 7 -6 22 -12 32 -14 30 -6 30 -45 -1
-68 -49 -39 -105 -17 -116 45 -8 42 8 56 41 36z m212 -32 c13 -8 13 -10 -2
-10 -9 0 -20 5 -23 10 -8 13 5 13 25 0z"/>
<path d="M3490 1135 c7 -8 17 -12 22 -9 6 4 5 10 -3 15 -22 14 -33 10 -19 -6z"/>
<path d="M3397 1363 c-4 -3 -7 -11 -7 -17 0 -6 5 -5 12 2 6 6 9 14 7 17 -3 3
-9 2 -12 -2z"/>
<path d="M3099 1313 c-13 -16 -12 -17 4 -4 16 13 21 21 13 21 -2 0 -10 -8 -17
-17z"/>
<path d="M1685 1290 c-20 -22 -65 -26 -96 -10 -11 6 -19 7 -19 2 0 -6 20 -15
45 -21 41 -10 48 -9 75 11 29 21 39 38 22 38 -5 0 -17 -9 -27 -20z"/>
<path d="M2865 1300 c3 -5 11 -10 16 -10 6 0 7 5 4 10 -3 6 -11 10 -16 10 -6
0 -7 -4 -4 -10z"/>
<path d="M234 1283 c-3 -10 -10 -26 -15 -35 -10 -19 1 -24 17 -9 5 5 20 11 34
14 24 4 24 4 -2 6 -32 1 -36 15 -10 30 16 10 16 10 -1 11 -10 0 -20 -8 -23
-17z"/>
<path d="M3021 1286 c-9 -11 -10 -20 -1 -35 21 -40 79 -15 65 29 -7 24 -46 27
-64 6z m49 -19 c0 -19 -10 -27 -26 -20 -21 8 -17 33 6 33 11 0 20 -6 20 -13z"/>
<path d="M1538 1283 c7 -3 16 -2 19 1 4 3 -2 6 -13 5 -11 0 -14 -3 -6 -6z"/>
<path d="M1481 1254 c0 -11 3 -14 6 -6 3 7 2 16 -1 19 -3 4 -6 -2 -5 -13z"/>
<path d="M1507 1263 c-11 -10 -8 -51 3 -58 19 -12 32 6 14 19 -12 9 -14 15 -6
20 7 4 12 11 12 17 0 10 -14 12 -23 2z"/>
<path d="M2255 1250 c3 -5 12 -7 20 -3 21 7 19 13 -6 13 -11 0 -18 -4 -14 -10z"/>
<path d="M1849 1250 c-1 -3 -2 -19 -4 -35 -2 -24 2 -31 16 -32 23 -2 25 25 4
53 -8 10 -15 17 -16 14z"/>
<path d="M2128 1238 c9 -9 15 -9 24 0 9 9 7 12 -12 12 -19 0 -21 -3 -12 -12z"/>
<path d="M1595 1230 c-9 -15 14 -50 32 -50 13 0 14 3 5 12 -7 7 -12 20 -12 30
0 19 -15 24 -25 8z"/>
<path d="M2305 1220 c-3 -5 -1 -10 4 -10 6 0 11 5 11 10 0 6 -2 10 -4 10 -3 0
-8 -4 -11 -10z"/>
<path d="M210 1216 c0 -10 28 -13 41 -5 10 6 7 9 -13 9 -16 0 -28 -2 -28 -4z"/>
<path d="M1710 1211 c0 -5 5 -13 10 -16 6 -3 10 -2 10 4 0 5 -4 13 -10 16 -5
3 -10 2 -10 -4z"/>
<path d="M2990 1185 c-7 -9 -11 -18 -8 -20 3 -3 11 1 18 10 7 9 11 18 8 20 -3
3 -11 -1 -18 -10z"/>
<path d="M1526 1175 c4 -8 13 -15 21 -15 13 0 13 3 3 15 -7 8 -16 15 -21 15
-5 0 -6 -7 -3 -15z"/>
<path d="M2174 1163 c-27 -30 -35 -64 -9 -43 9 7 19 10 22 6 4 -4 1 -11 -7
-16 -10 -7 -11 -10 -2 -10 18 0 52 38 52 59 0 31 -29 33 -56 4z"/>
<path d="M2930 1171 c0 -6 9 -9 19 -8 11 0 17 5 15 9 -7 11 -34 10 -34 -1z"/>
<path d="M1929 1133 c-26 -20 -53 -33 -71 -33 -17 0 -27 -4 -23 -10 3 -5 1
-10 -4 -10 -6 0 -11 7 -11 15 0 8 -9 15 -20 15 -11 0 -20 -6 -20 -14 0 -16 50
-28 65 -16 6 5 22 10 37 12 14 2 33 10 42 17 12 10 23 11 39 4 25 -10 57 -6
57 8 0 5 -8 10 -17 10 -10 1 -1 5 20 8 52 8 47 26 -7 27 -36 1 -53 -6 -87 -33z"/>
<path d="M2890 1150 c-13 -8 -13 -10 2 -10 9 0 20 5 23 10 8 13 -5 13 -25 0z"/>
<path d="M1841 1133 c15 -17 35 -17 42 1 4 11 -2 14 -24 14 -23 -1 -27 -4 -18
-15z"/>
<path d="M1600 1114 c0 -10 7 -14 22 -12 32 5 35 28 4 28 -17 0 -26 -5 -26
-16z"/>
<path d="M3770 1094 c0 -12 -8 -14 -35 -10 -20 4 -35 2 -35 -4 0 -10 18 -14
50 -12 8 0 18 -5 22 -11 4 -7 8 2 8 21 0 17 -2 32 -5 32 -3 0 -5 -7 -5 -16z"/>
<path d="M1665 1090 c11 -5 34 -9 50 -9 26 0 27 2 10 9 -11 5 -33 9 -50 9 -26
0 -27 -2 -10 -9z"/>
<path d="M1565 1080 c-3 -5 -1 -10 4 -10 6 0 11 5 11 10 0 6 -2 10 -4 10 -3 0
-8 -4 -11 -10z"/>
<path d="M1950 1080 c0 -5 7 -10 15 -10 8 0 15 5 15 10 0 6 -7 10 -15 10 -8 0
-15 -4 -15 -10z"/>
<path d="M4481 1074 c0 -11 3 -14 6 -6 3 7 2 16 -1 19 -3 4 -6 -2 -5 -13z"/>
<path d="M4284 1064 c-20 -7 -40 -17 -43 -21 -3 -5 -17 -27 -30 -49 -14 -21
-26 -41 -27 -43 -2 -2 -44 -5 -94 -7 -70 -2 -90 0 -90 10 0 15 -29 30 -38 21
-3 -3 3 -11 13 -19 18 -13 17 -13 -8 -13 -17 0 -32 7 -38 18 -5 11 -17 19 -26
19 -15 0 -15 -2 0 -18 10 -10 17 -22 17 -25 0 -11 -306 -8 -336 3 -21 8 -29 7
-38 -5 -6 -9 -29 -18 -51 -20 l-40 -5 30 14 c17 9 24 15 17 16 -19 0 -54 -19
-76 -42 -17 -18 -17 -21 -2 -36 14 -14 44 -18 169 -21 108 -2 158 -7 172 -17
11 -8 29 -14 40 -13 20 0 20 0 0 9 -17 7 -14 9 15 10 19 1 45 3 57 6 15 2 24
-2 28 -17 4 -11 18 -24 32 -30 34 -13 36 -12 29 16 -8 31 11 34 23 3 l8 -23 7
22 c5 17 16 23 49 25 l42 3 -28 29 c-16 15 -25 31 -22 35 4 3 17 -6 30 -22 24
-27 73 -52 83 -43 3 3 -10 19 -28 36 -21 19 -27 30 -17 30 15 0 51 -38 59 -61
2 -6 16 -9 32 -7 l29 3 -28 28 c-16 15 -26 30 -23 32 7 8 58 -45 58 -60 0 -15
11 -13 109 16 35 10 64 19 66 19 1 0 5 -9 8 -20 4 -15 -1 -22 -19 -26 -13 -3
-31 -4 -39 0 -8 3 -15 1 -15 -5 0 -6 -9 -8 -20 -4 -11 3 -27 2 -37 -4 -14 -8
-11 -11 22 -17 26 -5 40 -3 43 5 2 6 13 11 25 11 18 0 19 -2 7 -10 -8 -5 -11
-10 -6 -10 5 0 18 8 28 17 16 14 22 15 36 5 61 -45 139 -63 172 -42 13 9 13
12 -4 25 -10 7 -16 20 -14 27 3 7 -2 19 -9 26 -10 11 -11 17 -2 28 15 19 28
18 36 -3 3 -10 15 -26 27 -35 20 -16 20 -17 1 -40 -20 -23 -20 -23 0 -8 11 8
30 27 43 42 12 15 35 29 50 31 l27 4 -26 2 c-22 1 -26 6 -27 37 -2 47 -29 93
-73 122 -28 20 -44 23 -99 20 -43 -2 -69 -8 -77 -18 -9 -12 -14 -13 -24 -2 -7
6 -16 12 -20 12 -4 0 -9 -6 -12 -12 -2 -7 -3 -5 -2 4 2 10 -2 21 -8 25 -25 16
-87 19 -123 7z m106 -34 c0 -5 -4 -10 -9 -10 -6 0 -13 5 -16 10 -3 6 1 10 9
10 9 0 16 -4 16 -10z m164 -15 c11 -8 15 -15 10 -15 -16 0 -14 -38 2 -44 8 -3
14 -12 14 -20 0 -29 -28 -23 -65 16 l-38 41 24 18 c29 22 29 22 53 4z m-190
-30 c-19 -29 -51 -42 -67 -26 -6 6 -8 13 -5 17 5 5 73 32 86 34 1 0 -5 -11
-14 -25z m29 -56 c-6 -6 -9 -1 -7 13 3 33 6 36 11 14 3 -10 1 -22 -4 -27z
m-180 4 c-7 -2 -19 -2 -25 0 -7 3 -2 5 12 5 14 0 19 -2 13 -5z m-480 -30 c-7
-2 -19 -2 -25 0 -7 3 -2 5 12 5 14 0 19 -2 13 -5z m200 -37 c4 -10 1 -13 -9
-9 -15 6 -19 23 -5 23 5 0 11 -7 14 -14z"/>
<path d="M312 1065 c3 -4 100 -11 215 -16 114 -5 242 -13 283 -19 67 -9 395 2
407 13 5 5 -271 15 -632 23 -154 4 -277 3 -273 -1z"/>
<path d="M1760 1059 c0 -5 9 -9 20 -9 11 0 20 2 20 4 0 2 -9 6 -20 9 -11 3
-20 1 -20 -4z"/>
<path d="M1600 965 c-19 -22 -22 -73 -6 -82 8 -4 16 -17 19 -28 2 -11 4 -8 2
8 -2 29 19 38 29 12 3 -8 1 -15 -4 -15 -5 0 -8 -9 -7 -19 0 -11 5 -17 9 -15
13 8 9 -11 -4 -25 -11 -10 -10 -11 5 -6 10 4 17 18 17 34 0 14 4 32 9 39 4 7
5 32 1 54 -10 55 -43 75 -70 43z m26 -38 c-2 -7 -5 -4 -5 7 -1 16 -3 17 -18 5
-15 -13 -15 -12 -2 8 11 19 15 20 22 7 5 -8 6 -20 3 -27z m24 15 c0 -15 -2
-15 -10 -2 -13 20 -13 33 0 25 6 -3 10 -14 10 -23z"/>
<path d="M4030 971 c0 -11 26 -22 34 -14 12 12 5 23 -14 23 -11 0 -20 -4 -20
-9z"/>
<path d="M524 914 c-5 -18 -1 -29 12 -38 17 -13 17 -14 -4 -20 -13 -4 -19 -12
-16 -18 4 -6 3 -8 -2 -5 -6 3 -16 2 -24 -3 -9 -5 -20 -5 -28 2 -9 8 -16 8 -24
0 -16 -16 12 -39 58 -47 21 -4 46 -9 54 -12 8 -3 24 -7 35 -8 11 -1 40 -6 64
-10 40 -7 44 -6 38 9 -4 10 -7 20 -7 22 0 2 -6 4 -12 5 -7 0 -24 14 -38 31
-24 31 -24 31 -3 26 17 -5 24 1 34 24 17 41 2 52 -43 34 -34 -15 -36 -14 -46
9 -15 32 -40 32 -48 -1z m76 -66 c26 -28 25 -44 -2 -52 -33 -8 -51 14 -39 47
13 33 15 33 41 5z"/>
<path d="M2547 915 c-106 -17 -219 -48 -195 -53 10 -2 20 -13 23 -25 11 -55
14 -59 11 -15 -3 46 -3 46 32 53 48 9 56 -3 53 -82 -1 -31 -3 -33 -40 -33 -22
0 -43 -4 -46 -10 -3 -5 -35 -10 -71 -10 l-65 0 21 -28 c28 -38 18 -62 -27 -62
-19 0 -43 5 -55 11 -23 13 -35 5 -20 -13 7 -9 7 -18 -2 -31 -16 -20 -46 -23
-46 -3 0 7 -8 16 -17 20 -10 3 -24 9 -31 12 -8 4 -10 0 -6 -10 3 -9 4 -23 0
-31 -7 -20 -36 -8 -36 16 0 27 -13 24 -43 -11 -26 -29 -27 -30 -9 -48 32 -32
52 -35 52 -7 0 33 29 33 60 0 27 -29 43 -24 34 11 -4 14 -2 24 5 24 6 0 11 -6
11 -14 0 -16 42 -45 67 -47 10 -1 5 -5 -12 -9 l-30 -8 29 -1 c23 -1 26 -4 17
-15 -16 -19 23 -46 64 -45 27 2 27 2 5 6 -33 6 -59 30 -55 51 2 9 4 19 4 22 1
3 6 -2 11 -10 7 -12 10 -8 10 14 0 28 1 28 18 13 20 -19 47 -23 37 -7 -4 6
-10 8 -15 5 -5 -3 -11 4 -15 15 -9 27 -19 25 -33 -6 -7 -14 -17 -22 -22 -19
-31 19 20 75 67 75 18 0 39 -8 49 -17 9 -9 40 -25 68 -34 49 -17 57 -17 238 7
l187 24 30 -30 c36 -36 65 -41 31 -5 -21 22 -22 28 -10 49 l12 24 29 -29 c15
-16 31 -24 34 -19 4 6 -1 13 -9 16 -9 3 -13 10 -10 15 3 5 -1 9 -9 9 -19 0
-30 27 -14 34 7 2 1 5 -12 5 -20 1 -21 3 -11 16 14 16 42 6 70 -26 16 -19 67
-38 56 -21 -3 5 1 15 9 22 26 22 17 44 -42 106 -7 7 -13 32 -13 56 0 63 -9 84
-38 98 -42 19 -282 22 -385 5z m58 -55 c-3 -5 -19 -10 -35 -10 -16 0 -32 5
-35 10 -4 6 10 10 35 10 25 0 39 -4 35 -10z m45 -34 c0 -25 -4 -48 -10 -51 -6
-4 -10 13 -10 44 0 28 5 51 10 51 6 0 10 -20 10 -44z m54 28 c33 -13 16 -84
-20 -84 -22 0 -24 4 -24 45 0 46 8 53 44 39z m216 -35 c0 -20 -26 -33 -36 -17
-4 7 -9 6 -15 -3 -11 -18 -22 -5 -15 18 8 24 66 26 66 2z m-320 -19 c0 -11 -7
-20 -15 -20 -18 0 -19 12 -3 28 16 16 18 15 18 -8z m230 4 c0 -9 -7 -14 -17
-12 -25 5 -28 28 -4 28 12 0 21 -6 21 -16z m-270 -104 c27 -27 26 -80 -1 -109
-17 -19 -29 -22 -56 -18 -50 9 -63 23 -63 73 0 33 5 46 22 58 31 22 74 20 98
-4z m150 6 c0 -2 -9 -6 -20 -9 -11 -3 -20 -1 -20 4 0 5 9 9 20 9 11 0 20 -2
20 -4z m98 -13 c-2 -9 -9 -18 -17 -21 -9 -3 -11 0 -6 8 4 7 2 16 -6 21 -10 6
-8 9 9 9 17 0 23 -5 20 -17z m-122 -30 c-6 -6 -36 9 -36 18 0 5 9 4 20 -3 10
-7 18 -14 16 -15z"/>
<path d="M2478 686 c-33 -25 -22 -102 12 -81 9 5 11 4 6 -3 -11 -18 30 -15 48
4 43 43 -17 116 -66 80z m21 -50 c-3 -3 -11 5 -18 17 -13 21 -12 21 5 5 10
-10 16 -20 13 -22z"/>
<path d="M4825 880 c3 -5 8 -10 11 -10 2 0 4 5 4 10 0 6 -5 10 -11 10 -5 0 -7
-4 -4 -10z"/>
<path d="M1370 876 c0 -23 75 -126 91 -126 15 0 -30 75 -63 107 -15 15 -28 23
-28 19z"/>
<path d="M1550 825 c-7 -8 -9 -15 -4 -15 5 0 1 -5 -8 -11 -10 -5 -18 -15 -18
-21 0 -7 5 -6 15 2 8 7 23 9 32 5 17 -7 16 -8 -2 -15 -15 -7 -9 -9 24 -9 41
-1 43 0 29 17 -9 9 -18 24 -21 32 -4 10 -6 11 -6 2 -1 -7 -6 -10 -11 -7 -8 5
-7 11 1 21 9 11 8 14 -4 14 -8 0 -20 -7 -27 -15z"/>
<path d="M1680 821 c0 -12 0 -24 -1 -28 0 -4 4 -9 10 -11 14 -5 15 45 1 53 -5
3 -10 -3 -10 -14z"/>
<path d="M4138 813 c7 -3 16 -2 19 1 4 3 -2 6 -13 5 -11 0 -14 -3 -6 -6z"/>
<path d="M4198 803 c6 -2 18 -2 25 0 6 3 1 5 -13 5 -14 0 -19 -2 -12 -5z"/>
<path d="M4248 803 c7 -3 16 -2 19 1 4 3 -2 6 -13 5 -11 0 -14 -3 -6 -6z"/>
<path d="M1395 790 c-3 -5 -1 -10 4 -10 6 0 11 5 11 10 0 6 -2 10 -4 10 -3 0
-8 -4 -11 -10z"/>
<path d="M1677 759 c7 -7 15 -10 18 -7 3 3 -2 9 -12 12 -14 6 -15 5 -6 -5z"/>
<path d="M1487 747 c2 -4 17 -6 33 -5 16 1 27 6 24 10 -3 4 -18 6 -33 5 -16
-1 -27 -5 -24 -10z"/>
<path d="M1628 743 c6 -2 18 -2 25 0 6 3 1 5 -13 5 -14 0 -19 -2 -12 -5z"/>
<path d="M598 733 c-10 -2 -15 -10 -11 -19 3 -9 13 -12 31 -7 16 4 23 2 19 -4
-4 -6 4 -13 18 -15 32 -7 33 15 3 36 -23 16 -30 17 -60 9z"/>
<path d="M1450 730 c-8 -5 -10 -10 -5 -10 6 0 17 5 25 10 8 5 11 10 5 10 -5 0
-17 -5 -25 -10z"/>
<path d="M1685 730 c3 -5 8 -10 11 -10 2 0 4 5 4 10 0 6 -5 10 -11 10 -5 0 -7
-4 -4 -10z"/>
<path d="M1855 730 c-8 -14 3 -30 21 -30 16 0 16 2 8 24 -7 18 -20 21 -29 6z"/>
<path d="M3270 715 c-7 -8 -24 -15 -37 -15 -19 0 -24 -4 -19 -16 5 -13 1 -15
-24 -12 -23 3 -34 0 -41 -13 -6 -11 -5 -20 1 -24 6 -3 7 -17 4 -30 -5 -22 -4
-23 35 -18 33 5 41 3 41 -11 0 -9 -7 -16 -15 -16 -8 0 -15 5 -15 12 0 11 -29
-21 -30 -33 0 -3 12 -4 28 -1 26 4 26 4 10 -14 -15 -15 -21 -16 -43 -6 -15 7
-24 8 -20 2 3 -5 -3 -10 -14 -10 -26 0 -39 -27 -31 -65 l7 -30 7 28 c5 15 12
27 17 27 16 0 10 -20 -13 -45 -20 -21 -25 -22 -42 -10 -10 7 -15 18 -12 23 3
6 -1 12 -9 16 -8 3 -14 0 -12 -6 1 -7 -7 -12 -18 -13 -12 0 -20 -7 -20 -17 0
-10 4 -17 9 -15 5 1 15 -14 22 -33 l13 -35 -6 43 c-4 28 -2 42 6 42 6 0 11
-10 11 -22 0 -18 2 -20 10 -8 15 23 25 -16 12 -46 -10 -19 -9 -24 3 -24 8 0
15 -4 15 -9 0 -10 81 -2 90 8 3 3 21 18 40 33 57 43 110 97 110 112 0 8 5 18
10 21 6 3 10 32 10 64 0 52 2 59 23 65 l22 6 -27 24 c-17 16 -23 26 -15 29 7
2 -1 10 -18 18 -16 7 -37 19 -46 26 -14 11 -18 11 -29 -2z m25 -25 c3 -5 2
-10 -3 -10 -6 0 -13 -7 -16 -16 -3 -8 -2 -12 4 -9 16 10 24 -23 10 -40 -7 -8
-22 -14 -34 -14 -17 1 -17 2 -3 6 9 2 17 9 17 15 0 5 -7 8 -15 5 -8 -4 -17 -2
-20 3 -4 6 1 10 9 10 19 0 21 17 4 22 -9 3 -8 9 2 21 17 19 36 22 45 7z m-265
-264 c0 -3 -4 -8 -10 -11 -5 -3 -10 -1 -10 4 0 6 5 11 10 11 6 0 10 -2 10 -4z"/>
<path d="M1700 705 c-11 -13 -10 -14 4 -9 9 3 16 10 16 15 0 13 -6 11 -20 -6z"/>
<path d="M3445 710 c-3 -5 -3 -14 0 -20 3 -5 3 -10 -2 -10 -15 0 -32 -49 -19
-54 7 -3 8 -7 1 -13 -12 -9 -12 -36 -1 -70 5 -16 1 -27 -13 -40 -12 -10 -21
-25 -21 -35 0 -9 -6 -23 -13 -30 -8 -7 -17 -26 -21 -41 -3 -15 -11 -27 -16
-27 -6 0 -10 -6 -10 -12 0 -7 -9 -24 -20 -38 -26 -33 -27 -85 -2 -75 13 5 14
3 6 -5 -19 -19 -220 -16 -252 4 -7 4 -9 13 -5 19 5 8 2 8 -9 0 -12 -11 -19
-10 -36 6 -12 10 -19 21 -15 25 3 3 1 6 -5 6 -11 0 -10 -45 1 -57 4 -3 7 -13
7 -22 -1 -12 -6 -10 -21 9 -13 15 -19 34 -17 52 3 15 0 26 -6 25 -6 -1 -10 9
-8 22 1 13 -5 29 -15 36 -20 15 -36 10 -27 -8 3 -7 -1 -4 -9 6 -10 12 -17 14
-22 8 -3 -6 -12 -11 -18 -11 -7 0 -6 4 3 10 8 5 11 10 5 10 -5 -1 -19 -7 -29
-15 -11 -8 -14 -15 -8 -15 7 0 12 -11 12 -25 0 -16 4 -23 14 -19 7 3 16 -2 20
-12 5 -12 2 -15 -9 -10 -9 3 -13 2 -10 -3 3 -6 -3 -14 -12 -20 -17 -10 -17
-10 0 -11 12 0 17 -8 17 -32 0 -25 -3 -29 -12 -20 -17 17 -41 15 -34 -3 7 -19
-11 -19 -30 -1 -16 16 -19 56 -4 56 5 0 7 -6 4 -14 -8 -21 8 -25 36 -10 25 14
25 14 2 14 -17 0 -27 10 -41 43 -13 30 -15 44 -7 49 7 5 5 8 -5 8 -9 0 -19 -9
-22 -20 -3 -11 -2 -18 3 -15 4 3 11 -2 14 -11 8 -21 8 -26 -3 -20 -14 9 -23
-42 -11 -64 9 -17 8 -20 -10 -20 -11 0 -20 -4 -20 -10 0 -5 13 -10 29 -10 17
0 33 -5 36 -10 9 -14 38 -12 71 5 36 18 54 19 54 2 0 -17 45 -38 65 -31 9 4
15 19 15 36 0 25 3 28 20 23 16 -5 20 -2 20 17 0 18 2 20 10 8 9 -13 10 -13
10 0 1 9 5 6 10 -7 6 -16 18 -23 35 -23 16 0 24 4 20 10 -4 6 -16 8 -28 4 -22
-6 -22 -6 -2 9 11 9 22 11 23 6 2 -5 21 -9 43 -9 28 0 42 -6 51 -20 7 -11 19
-20 27 -20 12 0 13 -2 2 -12 -10 -11 -17 -7 -36 17 -30 36 -46 25 -18 -13 25
-34 72 -42 80 -13 7 26 28 34 43 15 16 -18 34 -18 50 1 15 18 57 20 62 3 2 -6
12 -12 22 -14 9 -1 16 1 14 4 -30 59 -31 63 -20 74 9 9 18 8 39 -1 26 -12 27
-14 10 -26 -23 -17 -5 -30 22 -16 17 10 19 8 12 -17 -7 -23 -13 -27 -44 -26
-45 1 -47 -10 -7 -31 34 -18 69 -7 72 23 3 40 -5 78 -20 96 -16 18 -16 19 2
13 16 -7 18 -4 12 25 -4 24 -3 29 4 18 8 -12 10 -11 10 6 0 12 -7 24 -15 28
-8 3 -15 12 -15 21 0 15 10 19 43 16 10 -2 21 8 27 23 11 29 18 31 55 14 19
-9 28 -9 37 0 9 9 7 12 -7 12 -11 0 -36 3 -56 6 -31 5 -37 3 -42 -15 -5 -21
-31 -29 -41 -12 -3 4 1 16 8 26 11 15 11 23 -1 46 -16 32 -11 46 21 59 18 8
17 9 -11 9 -27 1 -33 -3 -33 -21 0 -20 -1 -20 -19 -4 -29 26 -45 101 -29 134
12 24 19 27 63 27 90 0 102 27 18 44 -69 14 -90 14 -98 1z m8 -389 c15 -2 6
-31 -10 -31 -16 0 -16 2 -3 11 12 8 10 10 -10 5 -14 -2 -36 1 -50 9 -24 13
-23 13 20 10 25 -2 48 -4 53 -4z m-513 -77 c0 -7 -5 -14 -11 -16 -7 -2 -5 -9
5 -17 14 -11 16 -11 16 3 0 16 19 24 21 9 0 -5 2 -18 3 -30 3 -27 -13 -55 -20
-36 -3 7 -12 9 -21 6 -11 -4 -14 -3 -9 6 5 8 1 14 -13 18 -11 3 -18 9 -15 15
3 5 0 15 -6 23 -10 12 -9 15 4 15 19 0 21 11 4 29 -11 10 -8 10 15 0 15 -7 27
-18 27 -25z m449 -46 c1 -5 -5 -8 -13 -8 -9 0 -12 8 -8 27 5 25 6 25 13 8 4
-11 8 -23 8 -27z m-39 22 c0 -5 -8 -10 -17 -10 -10 0 -31 -7 -46 -15 -15 -8
-25 -9 -21 -3 5 7 -2 9 -19 6 -15 -3 -24 -1 -21 3 3 5 22 9 42 10 20 0 46 4
57 9 11 5 21 9 23 9 1 1 2 -3 2 -9z"/>
<path d="M1471 683 c0 -11 3 -13 6 -5 7 17 23 15 23 -3 0 -20 26 -19 34 1 9
24 9 24 -29 24 -27 0 -35 -4 -34 -17z"/>
<path d="M577 672 c4 -17 43 -26 43 -10 0 4 4 8 10 8 5 0 6 -9 1 -22 -6 -18
-16 -22 -50 -23 -23 -1 -45 -6 -49 -12 -4 -6 -27 -10 -52 -8 l-45 4 31 -14
c18 -7 35 -19 39 -27 6 -10 5 -10 -5 -1 -19 17 -51 -17 -33 -35 7 -7 17 -10
23 -7 5 3 10 3 10 -2 0 -4 14 -14 30 -21 17 -8 58 -47 93 -87 34 -40 69 -74
78 -74 9 -1 33 10 53 24 33 23 37 23 42 7 12 -37 22 -47 50 -47 24 0 30 5 38
35 12 44 10 42 30 34 9 -3 16 -12 16 -20 0 -28 38 -13 79 31 40 44 55 69 26
45 -8 -7 -25 -10 -40 -6 -14 4 -25 2 -25 -4 0 -10 15 -14 35 -10 6 1 7 -2 2
-6 -10 -10 -47 -13 -41 -3 2 4 -1 11 -6 14 -7 5 -5 11 6 19 16 12 16 15 -2 52
-11 21 -25 38 -31 37 -7 -2 -10 3 -7 10 2 7 -6 19 -19 26 -27 14 -62 4 -91
-27 -14 -16 -26 -20 -50 -15 -17 3 -36 10 -42 15 -6 4 -18 6 -26 3 -8 -3 -26
-1 -41 4 -24 9 -25 13 -16 41 6 16 15 30 20 30 21 0 7 31 -21 45 -41 21 -69
20 -63 -3z m3 -129 c0 -8 9 -26 19 -39 l20 -25 3 23 c2 18 8 22 28 19 13 -1
32 -12 42 -24 20 -22 38 -16 19 7 -8 10 -9 16 -1 21 6 3 7 12 4 18 -4 8 -2 7
7 -1 12 -11 12 -14 0 -21 -10 -7 -8 -11 9 -16 17 -5 27 -2 37 11 7 10 13 13
13 7 0 -16 -33 -48 -55 -52 -11 -2 -44 -4 -73 -6 -49 -2 -54 0 -65 24 -6 14
-19 38 -29 53 -18 26 -18 26 2 21 11 -3 20 -12 20 -20z m273 10 c-7 -3 -13 -9
-13 -14 0 -6 6 -7 13 -3 6 4 9 3 4 -1 -4 -5 -17 -10 -29 -12 -22 -3 -22 -3 2
22 13 14 26 22 29 19 3 -4 0 -9 -6 -11z m-233 -13 c0 -5 -5 -10 -11 -10 -5 0
-7 5 -4 10 3 6 8 10 11 10 2 0 4 -4 4 -10z m325 -51 c11 -17 2 -18 -19 -3 -17
12 -17 14 -4 14 9 0 20 -5 23 -11z m-145 -34 c-5 -7 -7 -15 -3 -19 4 -4 0 -4
-9 -1 -20 8 -14 32 7 32 10 0 12 -4 5 -12z m-90 -10 c-7 -8 -24 -14 -39 -14
l-26 2 28 4 c15 2 27 9 27 14 0 5 5 9 11 9 8 0 8 -5 -1 -15z m150 -87 c0 -5
-7 -8 -15 -8 -19 0 -29 24 -20 48 6 15 8 14 20 -8 8 -14 14 -28 15 -32z"/>
<path d="M1405 679 c-4 -6 -5 -12 -2 -15 2 -3 7 2 10 11 7 17 1 20 -8 4z"/>
<path d="M4415 664 c0 -18 3 -20 22 -11 16 7 26 6 37 -6 14 -14 14 -16 0 -21
-25 -9 -41 -7 -24 4 8 5 11 10 5 10 -5 0 -23 -14 -39 -30 -34 -35 -66 -40 -66
-10 0 11 5 20 10 20 6 0 10 5 10 10 0 17 -24 11 -69 -20 -47 -32 -74 -63 -64
-74 3 -3 1 -6 -5 -6 -7 0 -12 5 -12 10 0 6 -6 10 -12 9 -42 -5 -70 2 -64 16 4
12 2 13 -14 3 -10 -7 -17 -15 -14 -19 2 -4 0 -10 -6 -14 -16 -10 -11 -28 6
-21 11 4 15 2 11 -8 -7 -17 25 -16 36 2 4 6 12 12 17 12 15 0 12 -27 -2 -33
-8 -4 -5 -8 8 -12 16 -5 20 -13 16 -31 -2 -13 -8 -24 -13 -24 -5 0 -6 6 -3 13
3 8 -3 20 -12 28 -16 12 -17 12 -11 -3 8 -22 -35 -68 -63 -68 -11 0 -20 -7
-20 -15 0 -25 -33 -50 -60 -47 -19 3 -22 1 -13 -10 12 -14 -5 -48 -24 -48 -16
0 -53 36 -53 51 -1 10 -4 9 -14 -4 -7 -9 -20 -17 -28 -17 -22 0 -37 -22 -42
-59 -4 -34 14 -61 40 -61 8 0 13 -4 10 -9 -4 -5 -3 -16 0 -25 6 -14 9 -14 35
1 20 12 32 14 37 7 4 -5 34 -16 67 -24 33 -7 67 -19 76 -27 18 -15 39 -17 39
-3 0 6 11 10 24 10 15 0 30 10 42 27 10 16 19 23 22 15 2 -8 9 -9 21 -2 10 5
21 7 24 4 3 -3 8 8 12 25 7 35 60 81 93 81 30 0 52 -27 52 -63 0 -28 1 -29 13
-13 9 12 29 20 53 22 76 5 86 10 100 42 14 35 38 41 64 17 11 -10 15 -25 12
-41 -5 -29 -23 -27 -37 4 -11 26 -25 29 -25 6 0 -22 25 -44 48 -44 15 0 22 9
28 32 3 18 14 38 23 44 13 10 10 13 -22 19 -34 7 -38 10 -33 31 4 13 3 24 -1
24 -5 0 -9 10 -9 23 -1 16 4 23 17 23 11 0 19 -4 19 -9 0 -4 5 -5 10 -2 14 9
3 24 -18 24 -9 1 -24 1 -32 2 -8 1 -24 -2 -35 -6 -16 -6 -17 -5 -5 4 13 10 13
12 0 21 -13 8 -12 11 5 16 11 3 28 20 37 39 16 31 16 34 -2 50 -12 11 -20 13
-25 6 -11 -20 -22 -12 -29 21 -8 38 -42 78 -68 78 -19 0 -42 41 -28 50 5 3
-13 5 -38 5 -41 0 -47 -3 -47 -21z m-150 -154 c3 -5 2 -10 -4 -10 -5 0 -13 5
-16 10 -3 6 -2 10 4 10 5 0 13 -4 16 -10z m368 -27 c-5 -12 -7 -12 -14 -1 -13
20 -11 28 5 22 8 -3 12 -12 9 -21z m-103 -18 c0 -17 -22 -34 -45 -34 -11 -1
-37 -4 -59 -7 -31 -5 -37 -4 -31 7 5 8 -1 6 -12 -4 -22 -19 -72 -20 -85 -2
-25 33 12 57 44 29 12 -11 18 -13 13 -5 -6 11 -3 13 13 9 13 -4 23 0 26 9 4
10 19 14 51 12 24 -2 47 0 51 3 9 10 34 -2 34 -17z m-248 -13 c-3 -23 -9 -28
-33 -30 -34 -3 -38 11 -9 31 11 8 17 17 13 20 -3 4 3 7 14 7 16 0 19 -5 15
-28z m308 -22 c0 -5 -9 -10 -21 -10 -11 0 -17 5 -14 10 3 6 13 10 21 10 8 0
14 -4 14 -10z m-360 -42 c0 -6 -7 -7 -16 -4 -9 3 -24 6 -35 6 -10 0 -19 4 -19
8 0 4 16 6 35 4 19 -2 35 -9 35 -14z m332 5 c-6 -2 -10 -9 -6 -14 3 -5 0 -9
-5 -9 -12 0 -14 13 -4 23 3 4 11 7 17 6 6 0 5 -3 -2 -6z m-419 -20 c-7 -2 -19
-2 -25 0 -7 3 -2 5 12 5 14 0 19 -2 13 -5z m112 -20 c53 -6 58 -13 8 -13 -45
0 -103 17 -103 31 0 5 12 4 28 -2 15 -6 45 -13 67 -16z m268 -3 c-3 -12 -8
-19 -11 -16 -5 6 5 36 12 36 2 0 2 -9 -1 -20z m-63 -21 c0 -5 5 -7 10 -4 6 3
10 1 10 -4 0 -14 -17 -14 -25 -1 -4 7 -12 7 -25 0 -24 -13 -50 -13 -50 -1 0 6
15 12 33 14 17 2 35 5 40 5 4 1 7 -3 7 -9z m100 2 c0 -3 -11 -11 -25 -18 -27
-12 -31 -9 -13 11 12 13 38 18 38 7z m57 3 c-3 -3 -12 -4 -19 -1 -8 3 -5 6 6
6 11 1 17 -2 13 -5z m-234 -54 c-2 -3 -11 3 -18 14 -9 11 -19 15 -27 10 -10
-6 -10 -4 1 9 12 15 15 15 31 -6 10 -12 16 -24 13 -27z m-73 25 c0 -8 -2 -15
-4 -15 -2 0 -6 7 -10 15 -3 8 -1 15 4 15 6 0 10 -7 10 -15z m-137 -2 c-7 -2
-19 -2 -25 0 -7 3 -2 5 12 5 14 0 19 -2 13 -5z m104 -25 c-3 -7 -5 -2 -5 12 0
14 2 19 5 13 2 -7 2 -19 0 -25z m353 20 c0 -4 -6 -8 -13 -8 -7 0 -18 -10 -23
-22 -6 -13 -9 -17 -7 -10 2 8 3 22 3 32 0 13 7 18 20 17 11 -1 20 -5 20 -9z
m-378 -50 c-6 -25 -14 -16 -18 24 -4 29 -3 30 10 13 7 -10 11 -27 8 -37z m175
35 c-9 -9 -20 -13 -24 -9 -4 4 -1 11 7 16 25 16 35 11 17 -7z m144 0 c13 -16
12 -17 -3 -4 -15 11 -21 11 -35 0 -16 -13 -17 -12 -4 4 7 9 17 17 21 17 4 0
14 -8 21 -17z m-448 0 c-7 -2 -19 -2 -25 0 -7 3 -2 5 12 5 14 0 19 -2 13 -5z
m-57 -16 c17 6 17 5 6 -10 -11 -13 -17 -14 -32 -5 -10 7 -16 16 -13 21 3 5 9
4 13 -2 4 -7 15 -9 26 -4z m101 7 c-3 -3 -12 -4 -19 -1 -8 3 -5 6 6 6 11 1 17
-2 13 -5z m295 -21 c-4 -22 -5 -22 -17 -6 -15 20 -12 30 8 30 9 0 12 -8 9 -24z
m-156 -9 c-4 -9 -9 -15 -11 -12 -3 3 -3 13 1 22 4 9 9 15 11 12 3 -3 3 -13 -1
-22z m264 10 c0 -2 -7 -4 -15 -4 -8 0 -15 4 -15 10 0 5 7 7 15 4 8 -4 15 -8
15 -10z m-446 -9 c-4 -8 -10 -15 -15 -15 -4 0 -6 7 -3 15 4 8 10 15 15 15 4 0
6 -7 3 -15z m76 -5 c0 -5 -4 -10 -9 -10 -6 0 -13 5 -16 10 -3 6 1 10 9 10 9 0
16 -4 16 -10z m58 -71 c-3 -8 -7 -3 -11 10 -4 17 -3 21 5 13 5 -5 8 -16 6 -23z"/>
<path d="M1690 661 c0 -15 25 -31 47 -31 34 0 28 14 -12 26 -19 6 -35 8 -35 5z"/>
<path d="M2930 651 c0 -5 7 -15 17 -22 15 -13 15 -12 4 9 -12 23 -21 28 -21
13z"/>
<path d="M1400 630 c0 -5 8 -10 18 -10 207 -3 261 -7 275 -18 20 -17 69 -12
75 7 3 8 0 11 -6 7 -6 -3 -39 1 -74 9 -72 17 -288 21 -288 5z"/>
<path d="M1533 603 c29 -3 37 -8 37 -24 0 -16 -3 -18 -19 -9 -11 5 -30 10 -44
10 -20 0 -23 -4 -19 -28 3 -24 8 -28 37 -28 36 0 37 12 1 26 -19 8 -19 9 7 9
20 1 30 -5 37 -21 8 -20 9 -18 9 15 1 22 6 37 14 38 29 1 -31 18 -63 17 l-35
-1 38 -4z"/>
<path d="M1620 590 c0 -5 7 -10 16 -10 8 0 12 5 9 10 -3 6 -10 10 -16 10 -5 0
-9 -4 -9 -10z"/>
<path d="M3103 578 c1 -15 6 -23 11 -18 4 4 4 16 -2 26 -9 16 -10 14 -9 -8z"/>
<path d="M295 580 c-3 -5 -1 -10 4 -10 6 0 11 5 11 10 0 6 -2 10 -4 10 -3 0
-8 -4 -11 -10z"/>
<path d="M1243 565 c-3 -9 -3 -19 1 -22 3 -4 6 2 6 13 0 14 2 16 9 6 7 -11 9
-11 14 2 4 10 1 16 -9 16 -8 0 -17 -7 -21 -15z"/>
<path d="M1287 560 c-3 -11 -2 -20 2 -20 3 0 12 9 19 20 10 16 10 20 -2 20 -7
0 -16 -9 -19 -20z"/>
<path d="M1678 573 c7 -3 16 -2 19 1 4 3 -2 6 -13 5 -11 0 -14 -3 -6 -6z"/>
<path d="M1790 566 c0 -8 5 -18 10 -21 6 -3 10 3 10 14 0 12 -4 21 -10 21 -5
0 -10 -6 -10 -14z"/>
<path d="M3045 560 c-3 -5 -1 -10 4 -10 6 0 11 5 11 10 0 6 -2 10 -4 10 -3 0
-8 -4 -11 -10z"/>
<path d="M1729 531 c-18 -52 -24 -56 -75 -53 -34 2 -52 -2 -60 -13 -9 -13 -17
-13 -55 -1 -36 11 -40 15 -25 21 11 5 21 3 26 -5 5 -8 10 -9 14 -2 9 15 -25
30 -51 23 -17 -4 -20 -10 -13 -21 6 -9 5 -20 -3 -29 -10 -12 -8 -13 15 -8 37
10 58 -1 58 -28 0 -47 -9 -54 -82 -61 -48 -5 -75 -12 -85 -24 -9 -10 -24 -15
-34 -13 -23 6 -26 -12 -3 -21 10 -4 13 -13 9 -25 -10 -31 4 -48 58 -72 39 -17
74 -23 142 -24 50 -2 78 -1 63 2 -33 5 -35 17 -9 35 15 11 32 49 47 105 2 10
10 10 29 3 36 -14 48 -12 42 4 -4 10 -1 13 9 9 10 -4 12 -9 4 -18 -5 -6 -6
-16 -2 -20 4 -5 2 -5 -4 -2 -7 4 -14 0 -18 -8 -3 -8 -16 -16 -28 -16 -18 -1
-19 -2 -5 -6 10 -3 24 0 31 6 9 8 18 7 32 -3 18 -13 18 -15 2 -33 -9 -10 -17
-22 -17 -27 0 -6 -12 -11 -26 -13 -19 -3 -23 0 -19 12 4 9 0 15 -9 15 -9 0
-14 -7 -13 -17 2 -13 14 -19 41 -21 22 -2 51 -12 66 -23 36 -26 129 -27 152
-1 31 35 25 77 -13 91 -16 5 -30 15 -30 21 0 6 -15 10 -37 8 -36 -3 -38 -1
-41 30 -2 17 1 32 7 32 5 0 15 2 23 5 7 3 19 -5 27 -17 13 -21 13 -22 -2 -9
-15 12 -17 11 -17 -3 0 -10 9 -16 25 -16 14 0 24 3 24 8 -3 20 2 32 15 32 13
0 31 28 23 36 -2 2 -18 7 -36 10 -32 7 -33 6 -22 -15 7 -12 8 -21 2 -21 -5 0
-13 9 -16 20 -3 11 -11 20 -16 20 -6 0 -17 7 -25 15 -10 9 -11 15 -4 15 7 0 6
6 -4 15 -8 8 -22 15 -30 15 -15 0 -21 17 -17 48 2 16 -4 15 -23 -4 -14 -13
-16 -13 -16 0 0 8 9 18 20 21 24 8 27 42 4 42 -9 0 -20 -12 -25 -26z m31 5 c0
-3 -4 -8 -10 -11 -5 -3 -10 -1 -10 4 0 6 5 11 10 11 6 0 10 -2 10 -4z m-4 -93
c-11 -11 -19 6 -11 24 8 17 8 17 12 0 3 -10 2 -21 -1 -24z m-144 -22 c-5 -14
-4 -14 13 -1 11 9 16 10 11 3 -4 -8 -2 -13 5 -13 6 0 9 -8 7 -17 -4 -14 2 -18
29 -20 18 -1 33 3 33 8 0 5 8 9 18 9 10 0 13 -3 6 -8 -6 -4 -15 -18 -19 -32
-8 -24 -8 -24 -16 -5 -4 11 -8 15 -8 9 -1 -6 -14 -9 -30 -6 -22 3 -31 11 -36
31 -7 24 -8 25 -15 6 -6 -14 -9 -6 -9 30 -1 33 2 45 8 36 5 -8 6 -21 3 -30z
m114 -7 c-3 -8 -10 -13 -15 -10 -5 4 -4 16 2 31 9 18 13 20 15 9 2 -8 1 -22
-2 -30z m-149 -6 c-3 -8 -6 -5 -6 6 -1 11 2 17 5 13 3 -3 4 -12 1 -19z m261
-40 c-6 -18 -28 -21 -28 -4 0 9 7 16 16 16 9 0 14 -5 12 -12z m-260 -46 c-12
-14 -10 -14 10 -3 13 7 30 10 38 7 19 -7 18 -52 -2 -60 -8 -3 -13 -10 -10 -15
3 -5 -8 -23 -24 -41 -26 -28 -35 -32 -66 -27 -20 3 -52 15 -72 25 -30 16 -36
24 -34 45 1 14 -2 28 -8 32 -6 3 -7 0 -4 -9 3 -9 1 -16 -5 -16 -6 0 -8 -7 -4
-17 4 -11 3 -14 -5 -9 -31 19 2 96 41 95 l22 0 -22 -9 c-30 -12 -29 -18 1 -13
21 4 24 2 19 -18 -5 -16 -3 -20 6 -14 8 4 11 18 7 35 l-5 28 65 0 c57 0 63 -2
52 -16z m223 -74 c5 -10 6 -18 1 -18 -5 0 -14 11 -20 25 -22 49 -11 44 19 -7z"/>
<path d="M1507 310 c8 -28 22 -35 30 -13 4 10 11 21 17 25 6 4 -3 8 -21 8 -26
0 -30 -3 -26 -20z"/>
<path d="M1610 300 c-13 -8 -12 -10 3 -10 9 0 17 5 17 10 0 12 -1 12 -20 0z"/>
<path d="M1555 268 c6 -26 5 -30 -9 -25 -10 4 -15 3 -11 -3 3 -6 1 -10 -4 -10
-6 0 -11 5 -11 11 0 5 -4 8 -9 5 -5 -3 -11 4 -14 16 -4 12 -9 19 -13 15 -4 -4
6 -25 21 -47 27 -39 45 -51 45 -29 0 5 -5 7 -11 3 -7 -4 -10 -1 -7 7 6 18 34
18 30 1 -1 -8 2 -11 7 -7 6 3 8 12 5 19 -3 8 2 16 13 19 17 4 17 5 -1 6 -12 1
-16 6 -12 16 3 8 1 15 -5 15 -6 0 -7 5 -4 10 3 6 1 10 -5 10 -8 0 -9 -11 -5
-32z"/>
<path d="M1470 210 c8 -5 20 -10 25 -10 6 0 3 5 -5 10 -8 5 -19 10 -25 10 -5
0 -3 -5 5 -10z"/>
<path d="M104 533 c-11 -20 -7 -53 7 -53 5 0 9 -8 9 -19 0 -10 6 -30 13 -43
13 -26 73 -88 85 -88 14 1 42 27 35 33 -3 4 1 7 11 7 9 0 14 -4 11 -10 -7 -11
18 -14 29 -3 4 4 25 6 48 4 l41 -3 -22 27 c-11 15 -21 37 -20 49 0 19 1 19 10
-3 l10 -25 25 37 c14 22 33 37 44 37 25 0 25 -8 3 -33 -14 -16 -15 -19 -3 -15
18 6 43 54 35 68 -10 16 -33 11 -55 -12 -11 -12 -20 -17 -20 -10 0 6 9 17 19
24 14 10 17 18 10 28 -5 10 -9 11 -9 3 0 -7 -7 -10 -17 -6 -11 4 -14 3 -9 -5
5 -8 -2 -12 -23 -12 -16 0 -50 -11 -74 -23 -24 -13 -62 -27 -83 -30 l-39 -5
35 16 c19 9 40 21 45 25 6 4 19 14 30 22 19 14 19 14 -3 10 -43 -8 -62 -16
-57 -26 3 -5 -1 -6 -10 -3 -8 4 -22 0 -31 -7 -13 -10 -17 -10 -25 2 -5 8 -9
24 -9 37 0 27 -30 30 -46 5z m41 -34 c8 -23 1 -34 -14 -24 -13 8 -15 45 -2 45
5 0 13 -9 16 -21z m196 -30 c-12 -13 -19 -30 -16 -39 5 -11 3 -12 -6 -3 -9 9
-6 19 11 43 12 17 24 29 27 26 3 -2 -5 -15 -16 -27z m-158 -28 c4 0 7 -6 7
-13 0 -9 -3 -9 -12 0 -16 16 -31 15 -22 0 5 -9 2 -9 -9 1 -9 7 -17 15 -17 16
0 2 32 0 53 -4z m82 -9 l20 -14 -20 7 c-11 4 -28 7 -37 7 -10 0 -18 3 -18 7 0
13 34 9 55 -7z m22 -28 c-3 -3 -12 -4 -19 -1 -8 3 -5 6 6 6 11 1 17 -2 13 -5z
m46 -11 c-7 -2 -19 -2 -25 0 -7 3 -2 5 12 5 14 0 19 -2 13 -5z"/>
<path d="M2331 538 c0 -10 -8 -18 -16 -18 -9 0 -12 -6 -8 -16 5 -14 8 -14 20
-1 8 8 13 23 10 33 -4 17 -5 17 -6 2z"/>
<path d="M1137 520 c3 -11 7 -20 8 -20 1 0 5 9 8 20 3 12 0 20 -8 20 -8 0 -11
-8 -8 -20z"/>
<path d="M1283 515 c-3 -9 -3 -19 1 -22 3 -4 7 0 7 8 1 8 4 -1 8 -20 5 -31 8
-33 21 -19 20 20 46 -1 27 -23 -10 -11 -9 -11 5 0 13 10 15 18 8 36 -6 15 -6
27 0 30 13 8 13 25 -1 25 -6 0 -13 -9 -16 -20 -3 -11 -12 -20 -20 -20 -12 0
-12 2 1 16 21 21 20 24 -9 24 -14 0 -28 -7 -32 -15z"/>
<path d="M3585 519 c-7 -10 48 -18 64 -9 9 5 1 9 -23 12 -21 2 -39 1 -41 -3z"/>
<path d="M1400 511 c-18 -7 -23 -41 -6 -41 6 0 4 -5 -4 -10 -8 -5 -12 -10 -7
-10 4 0 -2 -9 -13 -20 -16 -16 -18 -25 -10 -40 9 -17 8 -19 -7 -13 -16 5 -15
4 1 -9 18 -14 22 -13 45 9 25 23 25 25 8 37 -16 12 -16 14 -1 20 9 3 19 4 23
2 3 -2 5 14 3 36 -4 32 -2 39 9 33 8 -5 10 -4 6 0 -10 12 -28 14 -47 6z m-5
-111 c3 -5 1 -10 -4 -10 -6 0 -11 5 -11 10 0 6 2 10 4 10 3 0 8 -4 11 -10z"/>
<path d="M2008 513 c6 -2 18 -2 25 0 6 3 1 5 -13 5 -14 0 -19 -2 -12 -5z"/>
<path d="M1238 493 c7 -3 16 -2 19 1 4 3 -2 6 -13 5 -11 0 -14 -3 -6 -6z"/>
<path d="M2047 479 c8 -8 27 -8 64 -1 l54 10 -64 1 c-47 1 -62 -2 -54 -10z"/>
<path d="M463 431 c-22 -23 -43 -50 -46 -62 -5 -18 -2 -19 22 -14 22 5 31 0
50 -25 26 -36 61 -37 76 -2 8 18 18 22 53 22 l44 0 -26 30 c-37 45 -79 78
-107 85 -21 5 -33 -1 -66 -34z m77 -95 c-14 -14 -32 3 -17 18 9 10 14 11 19 2
4 -6 3 -15 -2 -20z"/>
<path d="M3581 457 c-9 -12 -8 -16 5 -21 22 -9 24 -8 18 9 -7 17 11 21 19 5 3
-6 4 -5 3 2 -4 19 -31 21 -45 5z"/>
<path d="M2880 442 c0 -5 9 -18 20 -30 21 -23 50 -30 50 -12 0 5 -8 6 -17 3
-13 -5 -15 -2 -10 11 5 14 3 17 -8 13 -8 -4 -17 -2 -20 3 -3 4 1 11 7 13 8 3
6 6 -4 6 -10 1 -18 -3 -18 -7z"/>
<path d="M1878 433 c7 -3 16 -2 19 1 4 3 -2 6 -13 5 -11 0 -14 -3 -6 -6z"/>
<path d="M1312 405 c0 -16 2 -22 5 -12 2 9 2 23 0 30 -3 6 -5 -1 -5 -18z"/>
<path d="M1331 404 c0 -11 3 -14 6 -6 3 7 2 16 -1 19 -3 4 -6 -2 -5 -13z"/>
<path d="M1878 413 c7 -3 16 -2 19 1 4 3 -2 6 -13 5 -11 0 -14 -3 -6 -6z"/>
<path d="M1415 368 l-20 -21 23 12 c12 6 22 16 22 21 0 13 -2 12 -25 -12z"/>
<path d="M2759 377 c6 -8 8 -16 6 -19 -3 -3 3 -8 14 -11 19 -5 19 -4 4 19 -8
13 -20 24 -25 24 -7 0 -6 -5 1 -13z"/>
<path d="M2960 359 c0 -5 5 -7 10 -4 6 3 10 8 10 11 0 2 -4 4 -10 4 -5 0 -10
-5 -10 -11z"/>
<path d="M1321 344 c0 -11 3 -14 6 -6 3 7 2 16 -1 19 -3 4 -6 -2 -5 -13z"/>
<path d="M4675 350 c3 -5 8 -10 11 -10 2 0 4 5 4 10 0 6 -5 10 -11 10 -5 0 -7
-4 -4 -10z"/>
<path d="M3070 271 c0 -10 80 -34 87 -27 3 3 0 7 -8 9 -8 2 -29 9 -46 15 -18
5 -33 7 -33 3z"/>
<path d="M3177 248 c-19 -11 -5 -14 48 -8 l50 6 -43 5 c-24 2 -48 1 -55 -3z"/>
<path d="M1710 241 c0 -5 5 -13 10 -16 6 -3 10 -2 10 4 0 5 -4 13 -10 16 -5 3
-10 2 -10 -4z"/>
<path d="M4396 214 c-4 -10 -1 -14 6 -12 15 5 23 28 10 28 -5 0 -13 -7 -16
-16z"/>
<path d="M4380 175 c7 -8 17 -15 22 -15 6 0 5 7 -2 15 -7 8 -17 15 -22 15 -6
0 -5 -7 2 -15z"/>
<path d="M4652 160 c-10 -27 -7 -40 9 -40 6 0 8 4 5 9 -4 5 -1 11 6 13 8 3 8
9 0 24 -10 18 -11 18 -20 -6z"/>
<path d="M4328 153 c-22 -5 -24 -43 -3 -43 8 0 15 7 15 15 0 8 5 15 10 15 6 0
10 5 10 10 0 10 -3 11 -32 3z"/>
</g>
</svg>
